PathFileType	4	(X/Y/Z)	Patient4_TMGait_0pt4_02_right_36.trc.trc
DataRate	CameraRate	NumFrames	NumMarkers	Units	OrigDataRate	OrigDataStartFrame	OrigNumFrames
75.675675675676	75.675675675676	5	33	mm	75.675675675676	71	       141
Frame#	Time	Sacral			L.Shoulder			Chest			R.Shoulder			Neck			R.ASIS			L.ASIS			R.Thigh.Superior			R.Thigh.Lateral			R.Thigh.Inferior			R.Patella			L.Thigh.Superior			L.Thigh.Lateral			L.Thigh.Inferior			L.Patella			L.Shank.Superior			L.Shank.Lateral			L.Shank.Inferior			R.Shank.Superior			R.Shank.Lateral			R.Shank.Inferior			R.Heel			R.Midfoot.Superior			R.Midfoot.Lateral			R.Toe			L.Heel			L.Midfoot.Lateral			L.Midfoot.Superior			L.Toe			L.Elbow			L.Wrist			R.Elbow			R.Wrist			
		X1	Y1	Z1	X2	Y2	Z2	X3	Y3	Z3	X4	Y4	Z4	X5	Y5	Z5	X6	Y6	Z6	X7	Y7	Z7	X8	Y8	Z8	X9	Y9	Z9	X10	Y10	Z10	X11	Y11	Z11	X12	Y12	Z12	X13	Y13	Z13	X14	Y14	Z14	X15	Y15	Z15	X16	Y16	Z16	X17	Y17	Z17	X18	Y18	Z18	X19	Y19	Z19	X20	Y20	Z20	X21	Y21	Z21	X22	Y22	Z22	X23	Y23	Z23	X24	Y24	Z24	X25	Y25	Z25	X26	Y26	Z26	X27	Y27	Z27	X28	Y28	Z28	X29	Y29	Z29	X30	Y30	Z30	X31	Y31	Z31	X32	Y32	Z32	X33	Y33	Z33	

71	48.435000000000	826.037857541822	1005.182543771535	513.098430716391	975.430878027671	1431.122354633068	313.354327277249	1104.626605733163	1361.685887351680	453.487035618151	1053.121269092244	1432.520843068709	640.667311991397	983.980883301988	1490.870333824845	471.208523694435	1064.584144255909	935.128876896360	601.477121389573	1019.511242042042	957.006885772179	329.186881971095	1056.594862482027	722.974056562526	575.667286650876	953.808789318435	630.834280044398	644.506847048199	1008.040179255442	564.222307006009	562.199183332379	990.711748129366	481.297445622974	568.376520414241	1095.423704251895	769.797335209370	353.327785466920	1037.041888743866	640.819129080116	280.902681475521	1144.168207900229	581.743169474474	333.647771880643	1165.268071212698	512.729003387512	331.005880446012	1141.821157550109	439.395969959731	320.667211355635	1059.968890635076	318.541938269483	270.783136048829	1137.199835594678	209.366524445864	320.423324415397	952.610043106886	398.751637288641	576.350861313084	875.275391427978	302.519731582553	643.547320555558	902.729739281996	203.963839377030	576.160483194008	755.975415695716	44.094998964127	550.314871267472	928.191760499570	95.710618144642	582.017189165466	840.851649161976	36.775507035944	622.853066359622	1048.989699160962	40.672692268736	606.715305883612	1036.069452859966	42.836103158335	359.989599846637	1106.092253423791	40.911575367434	276.508271846080	1187.275558647258	107.420847795748	297.359598359548	1315.052861063788	62.199213872172	263.210481299541	845.632720156452	1100.580427545677	218.197468560954	828.223543830078	839.623912041109	210.444264269992	1188.876241886534	1122.416699741513	761.569461447619	1429.787419334081	1184.865109976607	718.888783649393	
72	48.448214285714	826.727547491201	1004.282863820469	509.817426656267	975.710407033704	1430.238854184052	310.315299077203	1104.542761895634	1361.412031761791	451.070525417725	1051.868082779727	1431.983684935946	638.070357161046	983.452642702418	1490.170821454323	468.269593704304	1065.173288947565	934.517270832524	599.440054669644	1021.075377190024	956.022686151279	327.207413691026	1056.836637552032	722.131519905121	574.032227540438	953.299180934493	630.459710406208	642.638513002322	1007.466075780610	563.348675360447	560.764948533919	989.684826183004	480.100414499465	566.877741703080	1096.186011935025	767.141027773908	351.903998264225	1035.792683199074	638.744633953355	280.599668047710	1142.416571660618	578.971064667656	333.808354445172	1162.157352878738	509.160719912506	331.550595685003	1137.897104092932	435.842429154120	321.169201438090	1054.307861658937	315.888580427336	271.957989421851	1129.792799027009	205.828526099940	322.175214670674	950.572369599433	398.055526783129	575.061419176760	872.345084255487	302.814057455206	642.683359490898	898.742744009576	203.762109381851	575.633624145377	750.736921173139	44.599489056219	550.473253322510	923.032077255731	95.767862178408	582.022611816472	835.605936628061	36.960877541961	622.917378374345	1043.685540230430	40.481407346341	606.768703958078	1025.815735824489	41.333359694101	362.042127321004	1095.833236464167	38.773330606739	278.452852224793	1178.177382011970	103.624336438554	299.868018192368	1305.529257531727	56.254771342128	265.526272153615	848.111989873587	1099.001201685363	214.248117603097	834.140913293969	837.742706862167	205.892774864298	1186.896615866872	1120.656862429926	758.260056519686	1429.008460366158	1180.415618737374	717.055715095245	
73	48.461428571429	827.384202059244	1003.578778273358	506.479017083875	976.178543113730	1429.494629183333	307.138695645222	1104.564665273005	1361.272725621234	448.585450811094	1050.671804524046	1431.666156198177	635.359503510150	983.034375670327	1489.660315574523	465.168333808240	1065.745068983318	934.039006720543	597.201594523765	1022.486321695773	955.312234824698	325.083663434724	1057.310967810002	721.463678009947	572.167779652951	953.184522825124	630.160798162511	640.576877467558	1007.343109767714	562.590052806123	559.133440424538	989.107591750965	478.951892592873	565.187118892050	1096.720600431544	764.770003531195	350.385764176697	1034.624292666188	637.188711087313	279.885641846131	1140.588649522482	576.652014008056	333.808827677530	1159.082555734032	506.161611375129	331.766881939184	1134.191470366105	432.880740304101	321.278093981085	1049.263261989905	313.672470497723	272.540381798994	1123.104294849942	202.913339643662	323.449703219461	948.943947825384	397.405470405658	573.635047114739	869.724540708298	303.271595138174	641.711262516947	894.969252326642	203.683592039395	575.075680478347	745.553980232063	45.412568133651	550.675288064980	917.986784505064	95.900590954560	582.056257314911	830.415128229482	37.290629254936	622.992675822827	1038.416020038075	40.242159857181	606.828769820578	1016.671088764599	40.074430142609	363.486721423612	1086.743859829284	37.170679894320	279.844741456262	1169.936805583459	100.684345957150	301.883860669801	1297.026444843376	51.671499216140	267.445326941903	851.406338322134	1097.326867685069	210.013839337458	841.162219866257	835.804503990186	200.986128283763	1184.331930016335	1118.822489312715	755.016900529438	1427.985786394018	1174.540725555228	715.538633017429	
74	48.474642857143	827.991327395293	1003.135290981001	503.126748190329	976.807373259444	1428.965795006093	303.872328181864	1104.688133147140	1361.299656922758	446.035504970368	1049.601886314893	1431.617261069368	632.544171607638	982.734494839703	1489.393274390034	461.944365822371	1066.261483218081	933.753645161787	594.734781219524	1023.671933374468	954.934512140163	322.765694978132	1057.930634344960	721.028537864736	570.056950087099	953.405661408516	629.993294859371	638.339748608616	1007.613257593495	562.002339435493	557.314395879636	988.942008335561	477.913144021010	563.352359345915	1097.022142998363	762.876310273394	348.685821265322	1033.594692109162	636.222438629380	278.711085447214	1138.774244523570	574.900655833176	333.479266434584	1156.140125431233	503.848581064657	331.536836742923	1130.814758500671	430.599209585300	320.949798534456	1044.947406605886	311.976801619539	272.480509494526	1117.232412548035	200.702170307753	324.216998173008	947.699422912312	396.849784009370	572.115473004988	867.383109662237	303.936776897392	640.652819298728	891.409179706431	203.776085416633	574.515620761791	740.436940295263	46.594176295780	550.918630698940	913.080324046467	96.123586220922	582.128403434194	825.287608306005	37.793825511846	623.076143664180	1033.188481817627	39.959043812812	606.893468522880	1008.733603583360	39.130698020823	364.365130862211	1078.896279983855	36.103861858304	280.713002097841	1162.655181658454	98.617533970774	303.346630923529	1289.613070129369	48.423899640919	268.884260998797	855.524580290581	1095.644495735978	205.531766859216	849.266888617950	833.918245624420	195.769906788048	1181.203248453145	1116.978936244065	751.824334439452	1426.666450960561	1167.201474599168	714.319202265844	
75	48.487857142857	828.545075218614	1002.988179763476	499.777447117855	977.551687660325	1428.710810373193	300.562924235082	1104.896334586998	1361.513930651969	443.424107386674	1048.703764716845	1431.860427399364	629.637069306664	982.542941810851	1489.401366777028	458.641835920392	1066.695198403952	933.706983526167	592.024845924302	1024.604224330904	954.916260216644	320.207186258445	1058.606606328008	720.868202768489	567.698519198851	953.891653946882	630.003068930437	635.953656493675	1008.208476490542	561.629531795352	555.326978576379	989.146930045083	477.031468851155	561.438669220900	1097.125115174933	761.590229233488	346.714520224661	1032.729466343369	635.839114168959	277.073711603152	1137.033960960464	573.731237700129	332.675981296740	1153.373842475578	502.227770314566	330.799281501915	1127.798793006436	428.988336907402	320.196969625138	1041.343065499603	310.808831068733	271.810562380987	1112.136743227499	199.179707172728	324.513388520574	946.804248487886	396.426263666150	570.555155890388	865.281688014679	304.841117488057	639.533263803821	888.056589803595	204.075211379061	573.982161478290	735.394076124448	48.183088230970	551.194909316428	908.331030861237	96.443675458246	582.244578231405	820.228186534648	38.490321829139	623.162336799590	1028.007972563811	39.642077805529	606.959139288461	1001.921808122365	38.520714123671	364.767321426230	1072.186011619204	35.512729897932	281.135127704952	1156.281103378567	97.339924436894	304.270696524463	1283.198379000960	46.346774050782	269.831185338678	860.443210380382	1094.037225277600	200.835402091164	858.435409209486	832.186066139000	190.290678632050	1177.547651478220	1115.188711414008	748.668271625864	1424.979625745634	1158.379607596326	713.366194378107	
